<?xml version="1.0" standalone="no"?>
<!DOCTYPE svg PUBLIC "-//W3C//DTD SVG 20010904//EN"
 "http://www.w3.org/TR/2001/REC-SVG-20010904/DTD/svg10.dtd">
<svg version="1.0" xmlns="http://www.w3.org/2000/svg"
 width="330.000000pt" height="330.000000pt" viewBox="0 0 330.000000 330.000000"
 preserveAspectRatio="xMidYMid meet">

<g transform="translate(0.000000,330.000000) scale(0.100000,-0.100000)"
fill="#000000" stroke="none">
<path d="M400 2550 l0 -350 350 0 350 0 0 350 0 350 -350 0 -350 0 0 -350z
m600 0 l0 -250 -250 0 -250 0 0 250 0 250 250 0 250 0 0 -250z"/>
<path d="M600 2550 l0 -150 150 0 150 0 0 150 0 150 -150 0 -150 0 0 -150z"/>
<path d="M1200 2750 l0 -150 50 0 50 0 0 -50 0 -50 -50 0 -50 0 0 -50 0 -50
50 0 50 0 0 50 0 50 50 0 50 0 0 100 0 100 -50 0 -50 0 0 50 0 50 100 0 100 0
0 -100 0 -100 50 0 50 0 0 -100 0 -100 -50 0 -50 0 0 -50 0 -50 -50 0 -50 0 0
-50 0 -50 -50 0 -50 0 0 50 0 50 -50 0 -50 0 0 -50 0 -50 50 0 50 0 0 -50 0
-50 -300 0 -300 0 0 -100 0 -100 -50 0 -50 0 0 50 0 50 -50 0 -50 0 0 50 0 50
-50 0 -50 0 0 -150 0 -150 100 0 100 0 0 -50 0 -50 50 0 50 0 0 -50 0 -50 100
0 100 0 0 -50 0 -50 -50 0 -50 0 0 -50 0 -50 -50 0 -50 0 0 50 0 50 -50 0 -50
0 0 -50 0 -50 -50 0 -50 0 0 -100 0 -100 50 0 50 0 0 50 0 50 50 0 50 0 0 -50
0 -50 100 0 100 0 0 50 0 50 50 0 50 0 0 -50 0 -50 50 0 50 0 0 50 0 50 -50 0
-50 0 0 50 0 50 100 0 100 0 0 -50 0 -50 50 0 50 0 0 -50 0 -50 -50 0 -50 0 0
-250 0 -250 50 0 50 0 0 50 0 50 50 0 50 0 0 -100 0 -100 50 0 50 0 0 100 0
100 -50 0 -50 0 0 50 0 50 50 0 50 0 0 50 0 50 50 0 50 0 0 -100 0 -100 100 0
100 0 0 -150 0 -150 -50 0 -50 0 0 -50 0 -50 150 0 150 0 0 150 0 150 100 0
100 0 0 -50 0 -50 -50 0 -50 0 0 -100 0 -100 200 0 200 0 0 50 0 50 50 0 50 0
0 -50 0 -50 50 0 50 0 0 50 0 50 50 0 50 0 0 -50 0 -50 50 0 50 0 0 250 0 250
-50 0 -50 0 0 50 0 50 -50 0 -50 0 0 100 0 100 50 0 50 0 0 -50 0 -50 50 0 50
0 0 150 0 150 -50 0 -50 0 0 -50 0 -50 -50 0 -50 0 0 -50 0 -50 -50 0 -50 0 0
-50 0 -50 -50 0 -50 0 0 100 0 100 50 0 50 0 0 50 0 50 -50 0 -50 0 0 100 0
100 -50 0 -50 0 0 50 0 50 -50 0 -50 0 0 100 0 100 50 0 50 0 0 -50 0 -50 100
0 100 0 0 50 0 50 150 0 150 0 0 100 0 100 -150 0 -150 0 0 -100 0 -100 -100
0 -100 0 0 50 0 50 50 0 50 0 0 50 0 50 -50 0 -50 0 0 -50 0 -50 -100 0 -100
0 0 50 0 50 -50 0 -50 0 0 -100 0 -100 -50 0 -50 0 0 -50 0 -50 50 0 50 0 0
-150 0 -150 -50 0 -50 0 0 50 0 50 -100 0 -100 0 0 150 0 150 50 0 50 0 0 50
0 50 50 0 50 0 0 50 0 50 -50 0 -50 0 0 100 0 100 50 0 50 0 0 -50 0 -50 50 0
50 0 0 100 0 100 -100 0 -100 0 0 -50 0 -50 -50 0 -50 0 0 -50 0 -50 -50 0
-50 0 0 50 0 50 -50 0 -50 0 0 50 0 50 50 0 50 0 0 50 0 50 150 0 150 0 0 50
0 50 50 0 50 0 0 100 0 100 -50 0 -50 0 0 50 0 50 -50 0 -50 0 0 -50 0 -50
-50 0 -50 0 0 50 0 50 -300 0 -300 0 0 -150z m800 -100 l0 -50 -200 0 -200 0
0 50 0 50 200 0 200 0 0 -50z m-400 -400 l0 -50 50 0 50 0 0 -50 0 -50 -50 0
-50 0 0 -100 0 -100 -50 0 -50 0 0 50 0 50 -50 0 -50 0 0 -100 0 -100 100 0
100 0 0 -50 0 -50 -100 0 -100 0 0 50 0 50 -50 0 -50 0 0 -100 0 -100 50 0 50
0 0 -50 0 -50 50 0 50 0 0 50 0 50 100 0 100 0 0 -50 0 -50 -100 0 -100 0 0
-50 0 -50 -50 0 -50 0 0 -50 0 -50 -50 0 -50 0 0 100 0 100 -150 0 -150 0 0
50 0 50 -50 0 -50 0 0 50 0 50 -100 0 -100 0 0 100 0 100 50 0 50 0 0 50 0 50
150 0 150 0 0 -50 0 -50 -50 0 -50 0 0 -50 0 -50 50 0 50 0 0 -50 0 -50 50 0
50 0 0 100 0 100 50 0 50 0 0 50 0 50 50 0 50 0 0 100 0 100 50 0 50 0 0 50 0
50 50 0 50 0 0 -50z m300 -200 l0 -50 -50 0 -50 0 0 50 0 50 50 0 50 0 0 -50z
m400 -400 l0 -50 -50 0 -50 0 0 50 0 50 50 0 50 0 0 -50z m-300 -250 l0 -100
-100 0 -100 0 0 -50 0 -50 -150 0 -150 0 0 50 0 50 50 0 50 0 0 50 0 50 100 0
100 0 0 50 0 50 100 0 100 0 0 -100z m400 0 l0 -100 -50 0 -50 0 0 50 0 50
-50 0 -50 0 0 -50 0 -50 -50 0 -50 0 0 50 0 50 50 0 50 0 0 50 0 50 100 0 100
0 0 -100z m-1000 -250 l0 -50 50 0 50 0 0 -50 0 -50 -50 0 -50 0 0 50 0 50
-50 0 -50 0 0 50 0 50 50 0 50 0 0 -50z m1000 -100 l0 -150 -150 0 -150 0 0
150 0 150 150 0 150 0 0 -150z m-500 0 l0 -50 -50 0 -50 0 0 -50 0 -50 -50 0
-50 0 0 50 0 50 -50 0 -50 0 0 50 0 50 150 0 150 0 0 -50z m700 -100 l0 -50
100 0 100 0 0 -50 0 -50 -150 0 -150 0 0 -50 0 -50 100 0 100 0 0 -100 0 -100
-50 0 -50 0 0 50 0 50 -50 0 -50 0 0 -50 0 -50 -100 0 -100 0 0 100 0 100 -50
0 -50 0 0 50 0 50 50 0 50 0 0 -50 0 -50 50 0 50 0 0 50 0 50 50 0 50 0 0 100
0 100 50 0 50 0 0 -50z m-600 -150 l0 -100 -50 0 -50 0 0 100 0 100 50 0 50 0
0 -100z"/>
<path d="M1500 2150 l0 -50 50 0 50 0 0 50 0 50 -50 0 -50 0 0 -50z"/>
<path d="M800 1850 l0 -50 50 0 50 0 0 50 0 50 -50 0 -50 0 0 -50z"/>
<path d="M1000 1650 l0 -50 50 0 50 0 0 50 0 50 -50 0 -50 0 0 -50z"/>
<path d="M2200 1050 l0 -50 50 0 50 0 0 50 0 50 -50 0 -50 0 0 -50z"/>
<path d="M2200 2550 l0 -350 350 0 350 0 0 350 0 350 -350 0 -350 0 0 -350z
m600 0 l0 -250 -250 0 -250 0 0 250 0 250 250 0 250 0 0 -250z"/>
<path d="M2400 2550 l0 -150 150 0 150 0 0 150 0 150 -150 0 -150 0 0 -150z"/>
<path d="M2700 1750 l0 -50 50 0 50 0 0 50 0 50 -50 0 -50 0 0 -50z"/>
<path d="M400 1650 l0 -50 50 0 50 0 0 50 0 50 -50 0 -50 0 0 -50z"/>
<path d="M2600 1550 l0 -50 150 0 150 0 0 50 0 50 -150 0 -150 0 0 -50z"/>
<path d="M400 750 l0 -350 350 0 350 0 0 350 0 350 -350 0 -350 0 0 -350z
m600 0 l0 -250 -250 0 -250 0 0 250 0 250 250 0 250 0 0 -250z"/>
<path d="M600 750 l0 -150 150 0 150 0 0 150 0 150 -150 0 -150 0 0 -150z"/>
<path d="M1600 650 l0 -50 50 0 50 0 0 50 0 50 -50 0 -50 0 0 -50z"/>
<path d="M1200 450 l0 -50 50 0 50 0 0 50 0 50 -50 0 -50 0 0 -50z"/>
<path d="M1400 450 l0 -50 50 0 50 0 0 50 0 50 -50 0 -50 0 0 -50z"/>
</g>
</svg>
