<?xml version="1.0" encoding="UTF-8"?>
<!--Generator: Apple Native CoreSVG 326-->
<!DOCTYPE svg
PUBLIC "-//W3C//DTD SVG 1.1//EN"
       "http://www.w3.org/Graphics/SVG/1.1/DTD/svg11.dtd">
<svg version="1.1" xmlns="http://www.w3.org/2000/svg" xmlns:xlink="http://www.w3.org/1999/xlink" viewBox="0 0 51.25 50.918">
 <g>
  <rect height="50.918" opacity="0" width="51.25" x="0" y="0"/>
  <path d="M25.4297 50.8789C39.4727 50.8789 50.8789 39.4922 50.8789 25.4492C50.8789 11.4062 39.4727 0 25.4297 0C11.3867 0 0 11.4062 0 25.4492C0 39.4922 11.3867 50.8789 25.4297 50.8789ZM25.4297 47.2461C13.3789 47.2461 3.63281 37.5 3.63281 25.4492C3.63281 13.3984 13.3789 3.65234 25.4297 3.65234C37.4805 3.65234 47.2266 13.3984 47.2266 25.4492C47.2266 37.5 37.4805 47.2461 25.4297 47.2461Z" fill="black" fill-opacity="0.85"/>
  <path d="M25.4102 37.9297C30.5664 37.9297 34.0625 34.4531 34.0625 32.8516C34.0625 32.3242 33.5352 32.0898 33.0859 32.3242C31.3477 33.418 29.043 34.5508 25.4102 34.5508C21.7773 34.5508 19.4922 33.3984 17.7539 32.3242C17.2852 32.0898 16.7578 32.3242 16.7578 32.8516C16.7578 34.4531 20.2734 37.9297 25.4102 37.9297ZM17.9102 23.1445C19.4336 23.1445 20.8008 21.7383 20.8008 19.8047C20.8008 17.8711 19.4531 16.4453 17.9102 16.4453C16.3867 16.4453 15.0781 17.8711 15.0781 19.8047C15.0781 21.7383 16.4062 23.1445 17.9102 23.1445ZM32.9102 23.1445C34.4531 23.1445 35.8008 21.7383 35.8008 19.8047C35.8008 17.8711 34.4531 16.4453 32.9102 16.4453C31.3867 16.4453 30.0781 17.8711 30.0781 19.8047C30.0781 21.7383 31.4062 23.1445 32.9102 23.1445Z" fill="black" fill-opacity="0.85"/>
 </g>
</svg>
